<svg width="113" height="42" viewBox="0 0 113 42" fill="none" xmlns="http://www.w3.org/2000/svg">
<path d="M0 21C0 9.67816 9.17816 0.5 20.5 0.5H92.5C103.822 0.5 113 9.67816 113 21C113 32.3218 103.822 41.5 92.5 41.5H20.5C9.17816 41.5 0 32.3218 0 21Z" fill="#E00034" fill-opacity="0.2"/>
<path d="M14.634 25.64C12.296 25.64 10.784 24.31 10.784 21.79V15.7H12.24V21.692C12.24 23.428 13.136 24.366 14.634 24.366C16.132 24.366 17.028 23.428 17.028 21.692V15.7H18.498V21.79C18.498 24.31 16.958 25.64 14.634 25.64ZM25.1215 21.286C25.1215 19.984 24.5615 19.27 23.4135 19.27C22.2655 19.27 21.4675 19.984 21.4675 21.286V25.5H20.0535V18.22H21.4675V19.676H21.5095C21.6355 19.13 22.3355 18.08 23.9595 18.08C25.3875 18.08 26.5355 18.906 26.5355 20.964V25.5H25.1215V21.286ZM31.3123 25.64C29.4783 25.64 27.7563 24.506 27.7563 21.874C27.7563 19.242 29.4783 18.08 31.3123 18.08C32.6143 18.08 34.2243 18.64 34.4903 20.81H33.2023C33.0063 19.69 32.2083 19.284 31.2983 19.284C29.9683 19.284 29.0863 20.236 29.0863 21.874C29.0863 23.512 29.9683 24.436 31.2983 24.436C32.2223 24.436 33.0063 24.016 33.2023 22.882H34.4903C34.2523 25.08 32.6143 25.64 31.3123 25.64ZM37.7118 25.64C36.3538 25.64 35.2758 25.038 35.2758 23.596C35.2758 22.196 36.2978 21.622 37.5998 21.468L39.4058 21.258C40.0778 21.174 40.3018 21.048 40.3018 20.824V20.628C40.3018 19.466 39.6998 19.158 38.6778 19.158C37.6278 19.158 37.0398 19.466 37.0398 20.39V20.558H35.6818V20.264C35.6818 18.808 36.7038 18.08 38.7058 18.08C40.7638 18.08 41.7158 18.85 41.7158 20.614V25.5H40.3858V24.324H40.3298C40.1898 24.604 39.5038 25.64 37.7118 25.64ZM36.6898 23.526C36.6898 24.212 37.1798 24.534 38.0618 24.534C39.6018 24.534 40.3018 23.582 40.3018 22.798V22C40.2038 22.154 40.0218 22.252 39.3078 22.336L37.9358 22.518C37.0258 22.63 36.6898 22.952 36.6898 23.526ZM45.8073 25.598C44.5893 25.598 43.7633 25.08 43.7633 23.652V19.34H42.5733V18.22H43.7633V16.386H45.1773V18.22H46.6193V19.34H45.1773V23.414C45.1773 24.128 45.4153 24.45 46.1993 24.45C46.3673 24.45 46.4933 24.45 46.7173 24.422V25.486C46.4513 25.556 46.1433 25.598 45.8073 25.598ZM50.9718 25.64C49.0118 25.64 47.4438 24.492 47.4438 21.874C47.4438 19.2 49.0398 18.08 50.9158 18.08C52.7918 18.08 54.2338 19.214 54.2338 21.762C54.2338 22.014 54.2198 22.154 54.1918 22.308H48.8018C48.9138 23.834 49.6838 24.534 50.9858 24.534C51.8818 24.534 52.5678 24.212 52.8758 23.358H54.1358C53.7018 24.982 52.4558 25.64 50.9718 25.64ZM48.8158 21.244H52.8898C52.8618 19.97 52.1478 19.186 50.9018 19.186C49.7398 19.186 48.9418 19.858 48.8158 21.244ZM58.3324 25.332C56.7364 25.332 55.1684 24.282 55.1684 21.706C55.1684 19.13 56.7504 18.08 58.3324 18.08C59.3684 18.08 60.2924 18.528 60.7684 19.284V18.22H62.1824V25.346C62.1824 27.852 60.1384 28.426 58.6124 28.426C57.1704 28.426 55.3924 27.922 55.3784 26.074H56.6244C56.6664 26.9 57.5624 27.32 58.5844 27.32C59.7884 27.32 60.7684 26.746 60.7684 25.346V24.128C60.2924 24.884 59.3684 25.332 58.3324 25.332ZM56.4984 21.706C56.4984 23.372 57.5344 24.156 58.6684 24.156C59.7884 24.156 60.8384 23.372 60.8384 21.706C60.8384 20.04 59.7884 19.27 58.6684 19.27C57.5344 19.27 56.4984 20.04 56.4984 21.706ZM66.9408 25.64C65.1348 25.64 63.3988 24.464 63.3988 21.86C63.3988 19.256 65.1348 18.08 66.9408 18.08C68.7608 18.08 70.4968 19.256 70.4968 21.86C70.4968 24.464 68.7608 25.64 66.9408 25.64ZM64.7428 21.86C64.7428 23.652 65.7648 24.45 66.9408 24.45C68.1168 24.45 69.1528 23.652 69.1528 21.86C69.1528 20.068 68.1168 19.27 66.9408 19.27C65.7648 19.27 64.7428 20.068 64.7428 21.86ZM73.1335 21.86V25.5H71.7195V18.22H73.1335V19.9H73.1615C73.3855 19.046 74.0715 18.164 75.4015 18.164C75.5835 18.164 75.7795 18.178 75.9475 18.234V19.424C75.7655 19.396 75.5975 19.382 75.4155 19.382C74.0575 19.382 73.1335 20.236 73.1335 21.86ZM77.0242 25.5V18.22H78.4382V25.5H77.0242ZM76.8842 16.12C76.8842 15.658 77.2762 15.28 77.7242 15.28C78.1722 15.28 78.5642 15.658 78.5642 16.12C78.5642 16.596 78.1722 16.96 77.7242 16.96C77.2762 16.96 76.8842 16.596 76.8842 16.12ZM79.7807 25.5V24.296L83.9947 19.424H79.9207V18.22H85.6747V19.424L81.4607 24.296H85.6747V25.5H79.7807ZM90.1554 25.64C88.1954 25.64 86.6274 24.492 86.6274 21.874C86.6274 19.2 88.2234 18.08 90.0994 18.08C91.9754 18.08 93.4174 19.214 93.4174 21.762C93.4174 22.014 93.4034 22.154 93.3754 22.308H87.9854C88.0974 23.834 88.8674 24.534 90.1694 24.534C91.0654 24.534 91.7514 24.212 92.0594 23.358H93.3194C92.8854 24.982 91.6394 25.64 90.1554 25.64ZM87.9994 21.244H92.0734C92.0454 19.97 91.3314 19.186 90.0854 19.186C88.9234 19.186 88.1254 19.858 87.9994 21.244ZM97.6 25.64C95.976 25.64 94.352 24.492 94.352 21.86C94.352 19.214 95.976 18.08 97.6 18.08C98.678 18.08 99.602 18.57 100.036 19.368V15.7H101.45V25.5H100.036V24.352C99.602 25.15 98.678 25.64 97.6 25.64ZM95.696 21.86C95.696 23.638 96.76 24.45 97.894 24.45C99.014 24.45 100.106 23.638 100.106 21.86C100.106 20.082 99.014 19.27 97.894 19.27C96.76 19.27 95.696 20.082 95.696 21.86Z" fill="#E00034"/>
</svg>
